<svg width="10" height="10" viewBox="0 0 10 10" fill="none" xmlns="http://www.w3.org/2000/svg">
<g clip-path="url(#clip0_508_3627)">
<path d="M4.99992 8.33333C5.88397 8.33333 6.73182 7.98214 7.35694 7.35702C7.98206 6.7319 8.33325 5.88405 8.33325 5C8.33325 4.11594 7.98206 3.2681 7.35694 2.64298C6.73182 2.01785 5.88397 1.66667 4.99992 1.66667C4.11586 1.66667 3.26802 2.01785 2.6429 2.64298C2.01777 3.2681 1.66659 4.11594 1.66659 5C1.66659 5.88405 2.01777 6.7319 2.6429 7.35702C3.26802 7.98214 4.11586 8.33333 4.99992 8.33333ZM4.99992 0.833332C5.54709 0.833332 6.08891 0.941106 6.59443 1.1505C7.09996 1.3599 7.55929 1.66681 7.9462 2.05372C8.33311 2.44063 8.64002 2.89996 8.84942 3.40548C9.05881 3.91101 9.16659 4.45282 9.16659 5C9.16659 6.10507 8.7276 7.16488 7.9462 7.94628C7.1648 8.72768 6.10499 9.16667 4.99992 9.16667C2.69575 9.16667 0.833252 7.29167 0.833252 5C0.833252 3.89493 1.27224 2.83512 2.05364 2.05372C2.83504 1.27232 3.89485 0.833332 4.99992 0.833332ZM5.20825 2.91667V5.10417L7.08325 6.21667L6.77075 6.72917L4.58325 5.41667V2.91667H5.20825Z" fill="#898989"/>
</g>
<defs>
<clipPath id="clip0_508_3627">
<rect width="10" height="10" fill="white"/>
</clipPath>
</defs>
</svg>
