<svg width="25" height="19" viewBox="0 0 25 19" fill="none" xmlns="http://www.w3.org/2000/svg">
<path d="M22.6117 8.38786C23.1294 9.05214 23.1294 9.94893 22.6117 10.6121C20.9809 12.7004 17.0682 17 12.5002 17C7.93212 17 4.01947 12.7004 2.38865 10.6121C2.13674 10.2941 2 9.90277 2 9.5C2 9.09723 2.13674 8.70593 2.38865 8.38786C4.01947 6.29964 7.93212 2 12.5002 2C17.0682 2 20.9809 6.29964 22.6117 8.38786Z" stroke="url(#paint0_linear_746_4859)" stroke-width="2.5" stroke-linecap="round" stroke-linejoin="round"/>
<path d="M12.5001 12.7143C14.3099 12.7143 15.777 11.2752 15.777 9.49999C15.777 7.72479 14.3099 6.28571 12.5001 6.28571C10.6903 6.28571 9.22314 7.72479 9.22314 9.49999C9.22314 11.2752 10.6903 12.7143 12.5001 12.7143Z" stroke="url(#paint1_linear_746_4859)" stroke-width="2.5" stroke-linecap="round" stroke-linejoin="round"/>
<defs>
<linearGradient id="paint0_linear_746_4859" x1="5.10037" y1="-0.460597" x2="31.0608" y2="11.6213" gradientUnits="userSpaceOnUse">
<stop stop-color="#FF56BB"/>
<stop offset="1" stop-color="#FF8F77"/>
</linearGradient>
<linearGradient id="paint1_linear_746_4859" x1="10.1907" y1="5.23116" x2="19.032" y2="8.22752" gradientUnits="userSpaceOnUse">
<stop stop-color="#FF56BB"/>
<stop offset="1" stop-color="#FF8F77"/>
</linearGradient>
</defs>
</svg>
