<svg width="18" height="15" viewBox="0 0 18 15" fill="none" xmlns="http://www.w3.org/2000/svg">
<mask id="path-1-inside-1_733_3702" fill="white">
<path d="M18 4.84489C18 10.3149 9.65973 14.7425 9.30455 14.9254C9.21094 14.9744 9.1063 15 9 15C8.8937 15 8.78906 14.9744 8.69545 14.9254C8.34027 14.7425 0 10.3149 0 4.84489C0.00148881 3.56039 0.52687 2.32892 1.46088 1.42064C2.39489 0.512355 3.66125 0.00144779 4.98214 0C6.64152 0 8.09437 0.693913 9 1.86685C9.90563 0.693913 11.3585 0 13.0179 0C14.3387 0.00144779 15.6051 0.512355 16.5391 1.42064C17.4731 2.32892 17.9985 3.56039 18 4.84489Z"/>
</mask>
<path d="M18 4.84489C18 10.3149 9.65973 14.7425 9.30455 14.9254C9.21094 14.9744 9.1063 15 9 15C8.8937 15 8.78906 14.9744 8.69545 14.9254C8.34027 14.7425 0 10.3149 0 4.84489C0.00148881 3.56039 0.52687 2.32892 1.46088 1.42064C2.39489 0.512355 3.66125 0.00144779 4.98214 0C6.64152 0 8.09437 0.693913 9 1.86685C9.90563 0.693913 11.3585 0 13.0179 0C14.3387 0.00144779 15.6051 0.512355 16.5391 1.42064C17.4731 2.32892 17.9985 3.56039 18 4.84489Z" stroke="url(#paint0_linear_733_3702)" stroke-width="4" mask="url(#path-1-inside-1_733_3702)"/>
<defs>
<linearGradient id="paint0_linear_733_3702" x1="0" y1="0" x2="18" y2="25.5" gradientUnits="userSpaceOnUse">
<stop stop-color="#FF56BB"/>
<stop offset="1" stop-color="#FF8F77"/>
</linearGradient>
</defs>
</svg>
