<svg width="34" height="34" viewBox="0 0 34 34" fill="none" xmlns="http://www.w3.org/2000/svg">
<path d="M34 18.1492C34 15.6764 32.5834 13.5322 30.5224 12.5149C30.7718 11.8341 30.9078 11.0985 30.9078 10.3238C30.9078 6.865 28.1393 4.06664 24.7265 4.06664C23.9656 4.06664 23.2371 4.19811 22.5636 4.45791C21.5631 2.3654 19.4455 0.93335 17.0008 0.93335C14.5562 0.93335 12.4418 2.36853 11.4364 4.45478C10.7645 4.19654 10.0344 4.06351 9.27346 4.06351C5.85744 4.06351 3.09223 6.865 3.09223 10.3238C3.09223 11.097 3.22661 11.8326 3.47593 12.5149C1.4166 13.5322 0 15.6733 0 18.1492C0 20.489 1.26604 22.5283 3.14404 23.6051C3.11166 23.8712 3.09223 24.1372 3.09223 24.4095C3.09223 27.8684 5.85744 30.6699 9.27346 30.6699C10.0344 30.6699 10.7629 30.5353 11.4348 30.2786C12.4386 32.3664 14.5529 33.8 16.9992 33.8C19.4471 33.8 21.5614 32.3664 22.5636 30.2786C23.2355 30.5337 23.964 30.6667 24.7265 30.6667C28.1426 30.6667 30.9078 27.8652 30.9078 24.4064C30.9078 24.1341 30.8883 23.868 30.8543 23.6035C32.7291 22.5283 34 20.489 34 18.1508V18.1492ZM23.2889 12.9312L16.2723 23.1043C16.0375 23.4439 15.6538 23.627 15.2604 23.627C15.0289 23.627 14.7942 23.5644 14.5869 23.4298L14.4007 23.2827L10.4909 19.503C10.0166 19.0444 10.0166 18.301 10.4909 17.844C10.9653 17.387 11.7343 17.3839 12.207 17.844L15.0726 20.6095L21.2652 11.626C21.6375 11.086 22.392 10.9436 22.9489 11.302C23.5091 11.662 23.6613 12.3913 23.2889 12.9297V12.9312Z" fill="url(#paint0_linear_491_2414)"/>
<defs>
<linearGradient id="paint0_linear_491_2414" x1="5.01964" y1="-4.45809" x2="50.7468" y2="11.2669" gradientUnits="userSpaceOnUse">
<stop stop-color="#FF56BB"/>
<stop offset="1" stop-color="#FF8F77"/>
</linearGradient>
</defs>
</svg>
