<svg width="105" height="105" viewBox="0 0 105 105" fill="none" xmlns="http://www.w3.org/2000/svg">
<g id="Team Icon">
<g id="Ellipse 52" filter="url(#filter0_d_491_2393)">
<circle cx="52.5" cy="48.5" r="36.5" fill="#415BF5"/>
</g>
<g id="Vector">
<g id="Group">
<g id="Group_2">
<path id="Vector_2" d="M64.0853 49.0554H61.5332C61.7933 49.7678 61.9355 50.5366 61.9355 51.3379V60.9856C61.9355 61.3197 61.8773 61.6404 61.7716 61.9386H65.9907C67.5668 61.9386 68.849 60.6561 68.849 59.0797V53.8203C68.849 51.193 66.712 49.0554 64.0853 49.0554Z" fill="white"/>
</g>
</g>
<g id="Group_3">
<g id="Group_4">
<path id="Vector_3" d="M42.7627 51.3379C42.7627 50.5366 42.9048 49.7679 43.165 49.0555H40.6129C37.9861 49.0555 35.8491 51.193 35.8491 53.8204V59.0798C35.8491 60.6562 37.1313 61.9387 38.7074 61.9387H42.9266C42.8208 61.6404 42.7627 61.3198 42.7627 60.9857V51.3379Z" fill="white"/>
</g>
</g>
<g id="Group_5">
<g id="Group_6">
<path id="Vector_4" d="M55.2661 46.5731H49.4317C46.805 46.5731 44.668 48.7106 44.668 51.3379V60.9857C44.668 61.512 45.0945 61.9387 45.6207 61.9387H59.0771C59.6033 61.9387 60.0299 61.512 60.0299 60.9857V51.3379C60.0299 48.7106 57.8929 46.5731 55.2661 46.5731Z" fill="white"/>
</g>
</g>
<g id="Group_7">
<g id="Group_8">
<path id="Vector_5" d="M52.3491 33.9387C49.1901 33.9387 46.6201 36.5094 46.6201 39.6692C46.6201 41.8125 47.8028 43.6843 49.5493 44.6671C50.3777 45.1332 51.3328 45.3996 52.3491 45.3996C53.3654 45.3996 54.3205 45.1332 55.1489 44.6671C56.8955 43.6843 58.0781 41.8124 58.0781 39.6692C58.0781 36.5094 55.5081 33.9387 52.3491 33.9387Z" fill="white"/>
</g>
</g>
<g id="Group_9">
<g id="Group_10">
<path id="Vector_6" d="M42.2894 39.2799C39.9269 39.2799 38.0049 41.2024 38.0049 43.5655C38.0049 45.9286 39.9269 47.8511 42.2894 47.8511C42.8887 47.8511 43.4594 47.7269 43.9778 47.5037C44.8741 47.1177 45.6131 46.4345 46.0704 45.5787C46.3913 44.978 46.5739 44.2928 46.5739 43.5655C46.5739 41.2024 44.6519 39.2799 42.2894 39.2799Z" fill="white"/>
</g>
</g>
<g id="Group_11">
<g id="Group_12">
<path id="Vector_7" d="M62.409 39.2799C60.0465 39.2799 58.1245 41.2024 58.1245 43.5655C58.1245 44.2928 58.3071 44.9781 58.6281 45.5787C59.0854 46.4346 59.8244 47.1178 60.7207 47.5037C61.2391 47.7269 61.8098 47.8511 62.409 47.8511C64.7716 47.8511 66.6936 45.9286 66.6936 43.5655C66.6936 41.2024 64.7716 39.2799 62.409 39.2799Z" fill="white"/>
</g>
</g>
</g>
</g>
<defs>
<filter id="filter0_d_491_2393" x="0" y="0" width="105" height="105" filterUnits="userSpaceOnUse" color-interpolation-filters="sRGB">
<feFlood flood-opacity="0" result="BackgroundImageFix"/>
<feColorMatrix in="SourceAlpha" type="matrix" values="0 0 0 0 0 0 0 0 0 0 0 0 0 0 0 0 0 0 127 0" result="hardAlpha"/>
<feOffset dy="4"/>
<feGaussianBlur stdDeviation="8"/>
<feComposite in2="hardAlpha" operator="out"/>
<feColorMatrix type="matrix" values="0 0 0 0 0.254902 0 0 0 0 0.356863 0 0 0 0 0.960784 0 0 0 0.22 0"/>
<feBlend mode="normal" in2="BackgroundImageFix" result="effect1_dropShadow_491_2393"/>
<feBlend mode="normal" in="SourceGraphic" in2="effect1_dropShadow_491_2393" result="shape"/>
</filter>
</defs>
</svg>
